HIERARCHY
ROOT Hips
{
	OFFSET	0.00	0.00	0.00
	CHANNELS 6 Xposition Yposition Zposition Zrotation Xrotation Yrotation
	JOINT LeftUpLeg
	{
		OFFSET	 0.126116	-0.065224	 0.014019
		CHANNELS 3 Zrotation Xrotation Yrotation
		JOINT LeftLeg
		{
			OFFSET	 0.000000	 0.569914	 0.000000
			CHANNELS 3 Zrotation Xrotation Yrotation
			JOINT LeftFoot
			{
				OFFSET	 0.000000	 0.544423	 0.000000
				CHANNELS 3 Zrotation Xrotation Yrotation
				JOINT LeftToeBase
				{
					OFFSET	 0.000000	 0.207117	 0.000000
					CHANNELS 3 Zrotation Xrotation Yrotation
					End Site
					{
						OFFSET	 0.000000	 0.207117	 0.000000
					}
				}
			}
		}
	}
	JOINT RightUpLeg
	{
		OFFSET	-0.124023	-0.065224	 0.008373
		CHANNELS 3 Zrotation Xrotation Yrotation
		JOINT RightLeg
		{
			OFFSET	 0.000000	 0.570047	 0.000000
			CHANNELS 3 Zrotation Xrotation Yrotation
			JOINT RightFoot
			{
				OFFSET	 0.000000	 0.544354	 0.000000
				CHANNELS 3 Zrotation Xrotation Yrotation
				JOINT RightToeBase
				{
					OFFSET	 0.000000	 0.207540	 0.000000
					CHANNELS 3 Zrotation Xrotation Yrotation
					End Site
					{
						OFFSET	 0.000000	 0.207540	 0.000000
					}
				}
			}
		}
	}
	JOINT Spine
	{
		OFFSET	 0.000184	 0.117403	 0.007763
		CHANNELS 3 Zrotation Xrotation Yrotation
		JOINT Spine1
		{
			OFFSET	 0.000000	 0.137269	 0.000000
			CHANNELS 3 Zrotation Xrotation Yrotation
			JOINT Spine2
			{
				OFFSET	 0.000000	 0.156879	 0.000000
				CHANNELS 3 Zrotation Xrotation Yrotation
				JOINT LeftShoulder
				{
					OFFSET	 0.080501	 0.160143	 0.002496
					CHANNELS 3 Zrotation Xrotation Yrotation
					JOINT LeftArm
					{
						OFFSET	 0.000000	 0.164363	 0.000000
						CHANNELS 3 Zrotation Xrotation Yrotation
						JOINT LeftForeArm
						{
							OFFSET	 0.000000	 0.364576	 0.000000
							CHANNELS 3 Zrotation Xrotation Yrotation
							JOINT LeftHand
							{
								OFFSET	 0.000000	 0.360812	 0.000000
								CHANNELS 3 Zrotation Xrotation Yrotation
								JOINT LeftHandIndex1
								{
									OFFSET	 0.000000	 0.086006	 0.000000
									CHANNELS 3 Zrotation Xrotation Yrotation
									JOINT LeftHandIndex2
									{
										OFFSET	 0.000000	 0.047237	 0.000000
										CHANNELS 3 Zrotation Xrotation Yrotation
										JOINT LeftHandIndex3
										{
											OFFSET	-0.004284	 0.038165	 0.000551
											CHANNELS 3 Zrotation Xrotation Yrotation
											End Site
											{
												OFFSET	-0.004284	 0.038165	 0.000551
											}
										}
									}
								}
							}
						}
					}
				}
				JOINT Neck
				{
					OFFSET	 0.000000	 0.176489	 0.000000
					CHANNELS 3 Zrotation Xrotation Yrotation
					JOINT Head
					{
						OFFSET	 0.000000	 0.077941	 0.001747
						CHANNELS 3 Zrotation Xrotation Yrotation
						End Site
						{
							OFFSET	 0.000000	 0.077941	 0.001747
						}
					}
				}
				JOINT RightShoulder
				{
					OFFSET	-0.080363	 0.159706	-0.000306
					CHANNELS 3 Zrotation Xrotation Yrotation
					JOINT RightArm
					{
						OFFSET	 0.000000	 0.164196	 0.000000
						CHANNELS 3 Zrotation Xrotation Yrotation
						JOINT RightForeArm
						{
							OFFSET	 0.000000	 0.365611	 0.000000
							CHANNELS 3 Zrotation Xrotation Yrotation
							JOINT RightHand
							{
								OFFSET	 0.000000	 0.360648	 0.000000
								CHANNELS 3 Zrotation Xrotation Yrotation
								JOINT RightHandIndex1
								{
									OFFSET	 0.000000	 0.069977	 0.000000
									CHANNELS 3 Zrotation Xrotation Yrotation
									JOINT RightHandIndex2
									{
										OFFSET	 0.000000	 0.052305	 0.000000
										CHANNELS 3 Zrotation Xrotation Yrotation
										JOINT RightHandIndex3
										{
											OFFSET	 0.009002	 0.042196	 0.000782
											CHANNELS 3 Zrotation Xrotation Yrotation
											End Site
											{
												OFFSET	 0.009002	 0.042196	 0.000782
											}
										}
									}
								}
							}
						}
					}
				}
			}
		}
	}
}
MOTION
Frames:    4
Frame Time: 0.03333334
 0.002128	 1.291323	 0.062065	-0.321050	 0.003949	-179.994000	-176.203100	 0.782068	-21.883770	 2.104715	-9.834982	-0.076343	-4.618808	 65.539150	 4.206289	 1.292262	 28.425850	-2.713146	 175.405800	 1.963083	 21.867890	-2.462991	-11.806300	 0.011542	 4.761275	 66.486410	-4.282327	-1.288183	 28.361890	 2.710176	 0.105005	 2.875790	 4.002610	-1.762795	 3.283427	 3.982471	 1.648613	-4.124492	-11.595580	-101.478000	 1.740670	 90.353370	-2.265190	 56.932440	 4.864021	 8.501069	 17.188810	 0.167981	 20.799550	-18.160870	 27.467600	-6.580301	 5.266122	 0.000000	 0.000000	 0.000000	 0.000000	 0.000000	 0.000000	 0.000000	 0.089846	-3.783161	 0.005928	 0.024143	 0.963182	-2.871726	 101.796200	-0.213323	-89.955450	-7.008842	 63.302910	-2.024850	-2.717024	 4.159649	-0.187981	-11.547760	-30.298150	 18.475180	 15.208500	 5.323790	 0.000000	 0.000000	 0.000000	 0.000000	 0.000000	 0.000000	 0.000000
 0.002127	 1.292088	 0.062015	-0.321050	 0.003949	-179.994000	-176.168700	 0.776033	-22.290080	 2.104747	-9.835131	-0.076341	-4.594902	 65.383420	 4.192945	 1.292262	 28.425850	-2.713146	 175.364700	 1.955449	 22.274400	-2.462969	-11.806200	 0.011547	 4.734865	 66.332660	-4.267280	-1.288183	 28.361890	 2.710176	 0.105005	 2.875790	 4.002610	-1.762795	 3.283427	 3.982471	 1.648613	-4.124492	-11.595580	-101.478000	 1.740670	 90.353370	-2.412303	 56.897280	 4.917922	 8.758349	 17.673240	 0.090907	 20.814910	-18.874990	 27.793300	-6.580301	 5.266122	 0.000000	 0.000000	 0.000000	 0.000000	 0.000000	 0.000000	 0.000000	 0.089846	-3.783161	 0.005928	 0.024143	 0.963182	-2.871726	 101.796200	-0.213323	-89.955450	-1.631030	 61.625990	-6.354862	-2.579042	 3.949208	-0.615348	-20.303630	-31.371980	 13.138670	 15.208500	 5.323790	 0.000000	 0.000000	 0.000000	 0.000000	 0.000000	 0.000000	 0.000000
 0.002126	 1.292782	 0.061969	-0.321054	 0.003949	-179.994000	-176.137600	 0.770186	-22.658880	 2.104716	-9.834993	-0.076342	-4.573215	 65.241980	 4.181025	 1.292262	 28.425850	-2.713146	 175.327400	 1.948351	 22.643290	-2.462981	-11.806260	 0.011548	 4.710785	 66.193250	-4.253617	-1.288183	 28.361890	 2.710176	 0.105013	 2.875789	 4.002608	-1.762819	 3.283431	 3.982471	 1.648625	-4.124495	-11.595580	-101.478000	 1.740670	 90.353390	-2.538071	 56.730980	 4.997890	 8.969473	 18.068620	 0.026131	 20.774580	-19.203510	 27.934020	-6.580301	 5.266122	 0.000000	 0.000000	 0.000000	 0.000000	 0.000000	 0.000000	 0.000000	 0.089846	-3.783161	 0.005928	 0.024143	 0.963182	-2.871726	 101.796200	-0.213318	-89.955450	 0.248094	 60.899960	-7.747729	-2.529724	 3.874016	-0.769304	-23.557940	-31.642570	 11.137150	 15.208500	 5.323790	 0.000000	 0.000000	 0.000000	 0.000000	 0.000000	 0.000000	 0.000000
 0.002124	 1.293485	 0.061922	-0.321050	 0.003949	-179.994000	-176.106100	 0.764150	-23.031930	 2.104730	-9.835056	-0.076342	-4.551336	 65.099060	 4.169132	 1.292262	 28.425850	-2.713146	 175.289800	 1.940908	 23.016530	-2.462988	-11.806300	 0.011544	 4.686646	 66.052220	-4.240167	-1.288183	 28.361890	 2.710176	 0.105005	 2.875790	 4.002610	-1.762818	 3.283435	 3.982472	 1.648623	-4.124503	-11.595580	-101.478000	 1.740668	 90.353370	-2.659811	 56.397620	 5.110610	 9.160952	 18.425420	-0.033837	 20.679040	-19.196350	 27.906910	-6.580301	 5.266122	 0.000000	 0.000000	 0.000000	 0.000000	 0.000000	 0.000000	 0.000000	 0.089846	-3.783161	 0.005928	 0.024143	 0.963182	-2.871726	 101.796200	-0.213318	-89.955450	-0.559052	 61.103130	-7.129831	-2.552483	 3.908604	-0.702550	-22.146730	-31.417440	 12.030580	 15.208500	 5.323790	 0.000000	 0.000000	 0.000000	 0.000000	 0.000000	 0.000000	 0.000000
